# Blender3D v249 OBJ File: stairs.blend
# www.blender3d.org
v 6.000000 6 3
v 6.000000 -5.644948 -3
v -6.00000 -5.644947 -3
v -6 6 3
v 6.000000 0.353930 -0.176966
v -6.000000 0.353932 -0.176965
v 6.000000 3.353368 1.322754
v -6 3.353370 1.322755
v 6.000000 -2.645509 -1.676685
v -6.000001 -2.645508 -1.676684
v 6.000000 -4.145228 -2.426545
v -6.000001 -4.145227 -2.426544
v 6.000000 -1.145789 -0.926825
v -6.000000 -1.145787 -0.926825
v 6.000000 1.853649 0.572894
v -6.000000 1.853651 0.572895
v 6.000000 4.853087 2.072613
v -6 4.853090 2.072614
v 6.000000 -5.647191 -2.425424
v -6.000001 -5.647189 -2.425423
v 6.000000 -4.147471 -1.675564
v -6.000001 -4.147470 -1.675563
v 6.000000 -2.647752 -0.925704
v -6.000001 -2.647750 -0.925703
v 6.000000 -1.148032 -0.175844
v -6.000000 -1.148030 -0.175843
v 6.000000 0.351687 0.574015
v -6.000000 0.351689 0.574016
v 6.000000 1.851406 1.323875
v -6 1.851408 1.323876
v 6.000000 3.351125 2.073735
v -6 3.351128 2.073736
v 6.000000 4.850844 3
v -6 4.850847 3
vn -0.000000 -1.0 0.00
vn -0.000000 -1.0 0.00
vn 0.000000 0.000 1.000000
vn 0.000000 0.000 1.000000
usemtl (null)
s off
f 34//1 18//1 17//1
f 34//2 17//2 33//2
f 33//3 1//3 4//3
f 33//4 4//4 34//4
f 32//1 8//1 7//1
f 32//1 7//1 31//1
f 18//3 32//3 31//3
f 18//4 31//4 17//4
f 30//1 16//1 15//1
f 30//1 15//1 29//1
f 8//3 30//3 29//3
f 8//3 29//3 7//3
f 28//1 6//1 5//1
f 28//1 5//1 27//1
f 16//3 28//3 27//3
f 16//3 27//3 15//3
f 26//2 14//2 13//2
f 26//2 13//2 25//2
f 6//3 26//3 25//3
f 6//3 25//3 5//3
f 24//1 10//1 9//1
f 24//2 9//2 23//2
f 14//3 24//3 23//3
f 14//3 23//3 13//3
f 22//2 12//2 11//2
f 22//1 11//1 21//1
f 10//4 22//4 21//4
f 10//3 21//3 9//3
f 20//1 3//1 2//1
f 20//1 2//1 19//1
f 12//4 20//4 19//4
f 12//4 19//4 11//4
